<svg xmlns="http://www.w3.org/2000/svg" id="svg11609945327" viewBox="0 -0.08 16 16.08"><g transform="translate(0 -0.076)" id="ss11609945327_1"><path d="M 0 0.076 L 16 0.076 L 16 16.076 L 0 16.076 Z" fill="transparent"/><path d="M 6.655 3.182 C 6.61 2.929 6.577 2.674 6.554 2.417 C 6.521 2.037 6.542 1.653 6.53 1.272 C 6.525 1.111 6.505 0.69 6.513 0.629 C 6.586 0.101 7.029 0.021 7.159 0.006 C 7.222 -0.003 7.866 -0.072 8.004 0.614 C 8.174 1.441 8.229 2.286 8.169 3.127 C 8.311 3.835 8.546 4.521 8.868 5.167 C 10.132 7.691 12.541 7.936 15.151 7.913 C 15.553 7.907 15.886 8.21 15.907 8.593 C 15.928 8.98 15.629 9.315 15.229 9.35 C 13.771 9.485 11.182 10.61 10.287 11.781 C 10.1 12.026 9.992 12.618 9.848 13.197 C 9.646 14.002 9.407 14.798 9.139 15.133 C 9.099 15.185 8.611 15.716 8.465 15.793 C 8.114 15.978 7.834 15.871 7.674 15.773 C 7.515 15.675 7.335 15.482 7.263 15.162 C 7.187 14.827 7.251 14.141 7.24 13.994 C 7.197 13.46 7.086 12.413 6.859 11.513 C 6.737 11.028 6.607 10.581 6.392 10.359 C 5.594 9.537 4.319 9.658 3.245 9.793 C 3.122 9.808 2.999 9.825 2.876 9.84 C 2.42 9.968 1.955 10.059 1.484 10.111 C 0.744 10.194 0.621 9.54 0.615 9.496 C 0.601 9.401 0.55 8.911 1.108 8.715 C 1.169 8.694 1.619 8.599 1.792 8.562 C 2.034 8.511 2.277 8.468 2.522 8.432 C 5.05 7.676 6.424 5.553 6.655 3.182 Z M 5.623 8.397 C 6.322 8.545 6.972 8.842 7.49 9.375 C 7.758 9.652 7.998 10.117 8.177 10.676 C 8.333 11.166 8.452 11.74 8.54 12.28 C 8.702 11.7 8.883 11.184 9.079 10.927 C 9.596 10.249 10.571 9.574 11.644 9.035 C 9.926 8.62 8.477 7.702 7.523 5.804 C 7.094 6.796 6.46 7.685 5.623 8.397 Z" fill="var(--token-29031ec6-b9eb-43a3-8d5b-be649df61da4, rgb(255, 230, 140)) /* {&quot;name&quot;:&quot;Yellow&quot;} */"/></g></svg>